# xmcd
#
# Track frame offsets: 
#        150
#        13413
#        35908
#        57224
#        77064
#        107102
#        135189
#        148785
#        171376
#        197841
#
# Disc length: 3083 seconds
#
# Revision: 0
# Processed by: cddbd v1.5.2PL0 Copyright (c) Steve Scherf et al.
# Submitted via: ExactAudioCopy v0.99pb4
#
DISCID=900c090a
DTITLE=Other Desert Cities - Other Desert Cities
DYEAR=2001
DGENRE=Country
TTITLE0=I Will Lay Down
TTITLE1=Wasted Love Song
TTITLE2=Northbound
TTITLE3=Still Swimming
TTITLE4=Renegade
TTITLE5=100 Percent Belief
TTITLE6=My Lady
TTITLE7=Don't Give It Away
TTITLE8=Eyes of Leaves
TTITLE9=Goodbye Jupiter
EXTD=
EXTT0=
EXTT1=
EXTT2=
EXTT3=
EXTT4=
EXTT5=
EXTT6=
EXTT7=
EXTT8=
EXTT9=
PLAYORDER=
